<svg viewBox="0 0 847 466" xmlns="http://www.w3.org/2000/svg"><g fill="#fff"><path d="m300.3 32.9c25.4-7.6 62.1 2.1 95.2 24.2l.4 153.5c-12.1-2.4-24.8-7.5-36.6-14.2-12.1-6.9-24.1-15.9-36.6-26.5l31.8-81.7c-16.5-10.7-80.9-28.9-72.6-38.2 8.4-9.2 18.4-17.1 18.4-17.1z"/><path d="m489 32.9c-25.4-7.6-62.1 2.1-95.2 24.2l-.4 153.5c12.1-2.4 24.8-7.5 36.6-14.2 12.1-6.9 24.1-15.9 36.6-26.5l-31.8-81.7c16.5-10.7 80.9-28.9 72.6-38.2-8.4-9.2-18.4-17.1-18.4-17.1z"/><path d="m300.2 272.4 86.4-98.1-32.1-86c-13.5 11.2-26.8 24.8-39.2 40.4-30.4 38.3-56.9 92.2-47.7 108.1s32.6 35.6 32.6 35.6z"/><path d="m489.2 272.3-86.4-98.1 32.1-86c13.5 11.2 26.8 24.8 39.2 40.4 30.4 38.3 56.9 92.2 47.7 108.1s-32.6 35.6-32.6 35.6z"/><path d="m275.6 248c-20.8-26.1-33.3-59.2-33.3-95.2 0-40.3 15.5-76.9 41-104.1 0 0 26.6 11.8 71.4 39.5-100 103.6-79.1 159.8-79.1 159.8zm119.1-189.3c0-.1-.1-.1 0 0 60.9-44.1 98.8-22 98.8-22-26.6-22.9-61.1-36.7-98.9-36.7s-72.3 13.8-98.9 36.7c0 0 37.9-22.7 98.9 21.9m-110 199.4c27.7 29.1 66.7 47.3 110 47.3 43.4 0 82.5-18.2 110.2-47.5 0 0-16.1-66.6-110.7-136.6-84.8 62.7-109.5 136.8-109.5 136.8zm229.2-10c20.8-26.1 33.3-59.2 33.3-95.2 0-40.3-15.6-76.9-41-104.1 0 0-26.6 11.8-71.4 39.5 100 103.6 79.1 159.8 79.1 159.8z"/><path d="m455.605 462.619-49.821-67.76 45.418-61.563h-17.042l-36.938 50.229-36.937-50.31h-16.96l45.336 61.562-49.658 67.76h17.042l41.177-56.1 41.341 56.1h17.042m-338.962.082-49.658-67.76 45.336-61.563h-16.96l-36.937 50.229-36.938-50.229h-17.042l45.418 61.563-49.822 67.76h17.042l41.34-56.1 41.178 56.1z"/><path d="m176.167 449.083h-37.997v-47.049h37.997c14.514 0 31.638 3.914 31.638 22.505 0 21.364-19.814 24.544-31.638 24.544zm-37.916-102.333h37.998c10.274 0 27.479 2.61 27.479 20.548 0 13.617-10.03 21.69-27.48 21.69h-37.997zm72.897 53.001c-2.69-2.364-5.545-4.077-8.48-5.381 9.377-5.137 15.492-14.678 15.492-25.93 0-8.236-3.017-35.225-41.993-35.225h-52.43v55.773h-17.45c-2.364 2.935-7.501 10.03-9.458 12.965h26.99v60.584h52.43c28.539 0 46.233-14.433 46.233-37.753-.082-10.111-3.995-18.754-11.334-25.033m79.502 52.023c-27.724 0-47.13-22.18-47.13-53.898s19.406-53.898 47.13-53.898c27.641 0 46.885 22.179 46.885 53.898.081 31.719-19.244 53.898-46.886 53.898zm0-121.495c-36.449 0-61.808 27.805-61.808 67.597s25.36 67.596 61.807 67.596c36.204 0 61.563-27.805 61.563-67.596.082-39.792-25.359-67.597-61.563-67.597"/><path d="m799.459 441.5h-7.828v-4.811h21.282v4.81h-7.828v21.12h-5.708zm19.243-4.811h8.154l6.034 17.776 5.79-17.776h7.99v25.848h-5.38v-18.265h-.082l-6.36 18.347h-4.322l-6.36-18.184h-.082v18.184h-5.382z"/><path d="m739.446 454.22c-8.725 0-16.064-2.854-21.609-8.48-12.394-12.313-14.106-35.226-14.106-47.783 0-16.878 3.425-56.18 35.715-56.18s35.877 39.302 35.877 56.18c-.081 16.96-3.588 56.263-35.877 56.263zm0-124.022c-30.741 0-48.354 24.706-48.354 67.84 0 43.054 17.613 67.76 48.354 67.76 17.45 0 30.496-7.583 38.731-22.668 7.91-14.35 9.54-32.452 9.54-45.173 0-20.303-4.729-67.76-48.271-67.76m-103.801 124.023c-18.265 0-32.616-14.677-32.616-33.432 0-19.488 14.025-34.165 32.616-34.165 8.48 0 16.39 3.262 22.26 9.214 6.442 6.442 10.112 15.574 10.112 24.951 0 18.755-14.27 33.432-32.372 33.432zm0-79.175a42.192 42.192 0 0 0-34.654 18.101c1.549-24.543 9.458-51.288 36.122-51.288 14.922 0 26.256 9.703 28.702 24.788l.408 2.365h12.394l-.245-3.099c-2.446-21.934-18.265-35.633-41.34-35.633-40.444 0-49.006 40.2-49.006 73.957 0 40.28 16.47 61.644 47.538 61.644 25.603 0 44.847-19.406 44.847-45.092.081-26.5-18.755-45.743-44.766-45.743m-78.115 18.265c10.926-5.056 17.857-15.9 17.857-28.784 0-9.051-3.017-16.716-8.888-22.668-7.501-7.502-19.977-11.824-33.839-11.824-22.913 0-38.731 13.618-41.178 35.633l-.326 3.099h12.394l.408-2.365c2.446-15.085 13.78-24.788 28.702-24.788 15.004 0 30.333 7.828 30.333 22.913 0 6.442-2.038 11.66-6.034 15.41-6.36 6.198-18.265 7.747-24.38 7.747-2.202 0-5.464.082-8.725.082-.082 3.18-.082 9.214 0 12.23h8.725c11.578.082 20.63 2.529 26.255 7.829 4.648 4.321 7.013 10.437 7.013 18.102 0 18.51-16.716 28.13-33.187 28.13-10.763 0-19.57-3.26-25.522-9.458-5.87-6.115-8.806-14.84-8.317-25.359l.082-2.935h-12.476l-.082 2.69c-.652 13.862 3.099 25.523 10.845 33.595 8.154 8.48 20.467 12.965 35.552 12.965 27.723 0 45.662-15.574 45.662-39.792-.163-15.248-8.072-27.315-20.874-32.453"/></g></svg>
